HIERARCHY
ROOT Hips
{
	OFFSET 0.000000 0.000000 0.000000 
	CHANNELS 6 Xposition Yposition Zposition Zrotation Yrotation Xrotation
	JOINT LeftUpLeg
	{
		OFFSET 1.363060 -1.794630 0.839290 
		CHANNELS 3 Zrotation Yrotation Xrotation
		JOINT LeftLeg
		{
			OFFSET 2.448110 -6.726130 0.000000 
			CHANNELS 3 Zrotation Yrotation Xrotation
			JOINT LeftFoot
			{
				OFFSET 2.562200 -7.039590 0.000000 
				CHANNELS 3 Zrotation Yrotation Xrotation
				JOINT LeftToeBase
				{
					OFFSET 0.157640 -0.433110 2.322550 
					CHANNELS 3 Zrotation Yrotation Xrotation
					End Site
					{
						OFFSET 0.000000 0.000000 0.000000 
					}
				}
			}
		}
	}
	JOINT RightUpLeg
	{
		OFFSET -1.305520 -1.794630 0.839290 
		CHANNELS 3 Zrotation Yrotation Xrotation
		JOINT RightLeg
		{
			OFFSET -2.542530 -6.985550 0.000000 
			CHANNELS 3 Zrotation Yrotation Xrotation
			JOINT RightFoot
			{
				OFFSET -2.568260 -7.056230 0.000000 
				CHANNELS 3 Zrotation Yrotation Xrotation
				JOINT RightToeBase
				{
					OFFSET -0.164730 -0.452590 2.363150 
					CHANNELS 3 Zrotation Yrotation Xrotation
					End Site
					{
						OFFSET 0.000000 0.000000 0.000000 
					}
				}
			}
		}
	}
	JOINT Spine
	{
		OFFSET 0.028270 2.035590 -0.193380 
		CHANNELS 3 Zrotation Yrotation Xrotation
		JOINT Spine1
		{
			OFFSET 0.056720 2.048850 -0.042750 
			CHANNELS 3 Zrotation Yrotation Xrotation
			JOINT Neck1
			{
				OFFSET -0.054170 1.746240 0.172020 
				CHANNELS 3 Zrotation Yrotation Xrotation
				JOINT Head
				{
					OFFSET 0.104070 1.761360 -0.123970 
					CHANNELS 3 Zrotation Yrotation Xrotation
					End Site
					{
						OFFSET 0.000000 0.000000 0.000000 
					}
				}
			}
			JOINT LeftArm
			{
				OFFSET 3.362410 1.200890 -0.311210 
				CHANNELS 3 Zrotation Yrotation Xrotation
				JOINT LeftForeArm
				{
					OFFSET 4.983000 -0.000000 -0.000000 
					CHANNELS 3 Zrotation Yrotation Xrotation
					JOINT LeftHand
					{
						OFFSET 3.483560 -0.000000 -0.000000 
						CHANNELS 3 Zrotation Yrotation Xrotation
						JOINT LeftHandIndex1
						{
							OFFSET 0.715260 -0.000000 -0.000000 
							CHANNELS 3 Zrotation Yrotation Xrotation
							End Site
							{
								OFFSET 0.000000 0.000000 0.000000 
							}
						}
					}
				}
			}
			JOINT RightArm
			{
				OFFSET -3.136600 1.374050 -0.404650 
				CHANNELS 3 Zrotation Yrotation Xrotation
				JOINT RightForeArm
				{
					OFFSET -5.241900 -0.000000 -0.000000 
					CHANNELS 3 Zrotation Yrotation Xrotation
					JOINT RightHand
					{
						OFFSET -3.444170 -0.000000 -0.000000 
						CHANNELS 3 Zrotation Yrotation Xrotation
						JOINT RightHandIndex1
						{
							OFFSET -0.622530 -0.000000 -0.000000 
							CHANNELS 3 Zrotation Yrotation Xrotation
							End Site
							{
								OFFSET 0.000000 0.000000 0.000000 
							}
						}
					}
				}
			}
		}
	}
}
MOTION
Frames: 6
Frame Time: 0.041667
17.439595 17.567995 -9.222281 3.132195 9.539287 -2.648061 -8.436600 -20.098992 -4.444501 -0.201957 6.239918 19.710904 -0.917650 -33.637188 18.916841 0.200600 2.884000 7.956000 15.664394 19.597858 -7.575886 -4.272762 -12.182099 37.910799 -2.288165 28.004016 -2.236683 -0.460400 -4.352400 12.070100 1.270280 0.580474 1.502053 0.496768 0.244050 -4.500542 7.320375 -6.939185 24.777403 4.824000 -3.741900 16.370400 -80.063331 6.153448 14.577287 12.706867 -18.368546 -2.349395 -1.470490 -2.297423 9.706530 -7.125000 0.000000 0.000000 78.808217 0.523528 18.660600 -23.649683 33.113068 -7.556574 0.447836 0.102174 -6.538559 7.125000 0.000000 0.000000 
17.524127 17.557979 -9.212165 2.839376 8.328870 -2.829996 -8.385296 -18.884706 -4.439999 -0.207919 6.238043 19.689904 -0.861656 -33.429997 19.065957 0.359100 3.849600 10.654000 15.804241 20.005032 -7.446338 -4.293113 -12.193101 37.973128 -2.217855 28.512633 -2.054549 -0.484600 -4.464000 12.385800 1.364283 0.543129 1.494781 0.545314 0.218757 -4.528036 7.447181 -6.963257 24.748725 4.894800 -3.753600 16.330500 -80.000605 6.073513 14.241785 12.669168 -18.324115 -2.331986 -1.493780 -2.385363 9.778150 -7.125000 0.000000 0.000000 78.559824 0.624737 17.487413 -23.092187 32.490742 -7.217718 0.458208 0.116739 -7.196596 7.125000 0.000000 0.000000 
17.609460 17.553673 -9.192635 2.385980 6.958782 -2.994805 -8.205417 -17.903011 -4.266052 -0.160115 6.268463 19.680237 -0.866438 -33.786907 16.964259 0.260600 3.284000 9.070400 16.169943 20.621527 -7.191603 -4.295667 -12.183371 37.959919 -2.164189 28.888361 -1.954651 -0.486200 -4.471300 12.406600 1.506811 0.564107 1.540510 0.608805 0.217334 -4.350799 7.477367 -6.970984 24.754616 4.909300 -3.760800 16.321100 -80.049768 6.234171 13.682211 12.808077 -18.556909 -2.387173 -1.544237 -2.396176 10.083388 -7.125000 0.000000 0.000000 78.299880 0.812258 16.291095 -22.560932 31.889302 -6.901240 0.467058 0.142394 -7.971506 7.125000 0.000000 0.000000 
17.694793 17.554975 -9.151771 2.474073 5.882292 -3.266722 -8.766422 -17.340768 -3.545161 -0.091548 6.299746 19.638907 -0.769610 -34.085027 13.121271 0.053400 1.491500 4.102300 16.009305 21.022392 -6.653611 -4.294155 -12.191000 37.936182 -2.180697 28.998013 -2.162380 -0.433300 -4.224300 11.708500 1.564534 0.457114 1.684723 0.841912 0.150468 -3.917138 7.418464 -6.947921 24.927841 4.879500 -3.757100 16.435200 -79.854653 5.797656 13.083477 12.367158 -17.898021 -2.207691 -1.591211 -2.301968 10.806580 -7.125000 0.000000 0.000000 78.034947 1.028478 15.009205 -22.097370 31.362253 -6.627309 0.482256 0.156404 -8.881967 7.125000 0.000000 0.000000 
17.784533 17.559882 -9.138350 2.826000 5.074188 -3.383866 -9.581347 -17.183520 -2.915983 -0.077660 6.278425 19.507348 -0.504457 -33.564265 10.415911 0.003500 0.383000 1.052300 15.356383 21.117876 -6.553407 -4.288371 -12.206025 37.933194 -2.168581 29.044952 -2.043838 -0.418300 -4.151100 11.502200 1.552589 0.296380 1.724434 1.008598 0.066956 -3.804659 7.279964 -7.000612 25.152298 4.804000 -3.795700 16.604500 -79.786364 5.619569 12.437524 12.228634 -17.682789 -2.152721 -1.579382 -2.146782 11.758060 -7.125000 0.000000 0.000000 77.710394 1.094341 13.549258 -21.740164 30.957712 -6.420330 0.482345 0.151385 -9.558499 7.125000 0.000000 0.000000 
17.895105 17.570198 -9.159383 3.832062 4.747287 -3.179800 -11.154996 -17.510899 -2.469689 -0.125058 6.180885 19.274986 -0.333362 -32.604748 9.584683 0.004700 0.442900 1.216900 13.515299 20.455742 -7.232647 -4.304206 -12.252502 37.977978 -2.107014 29.691753 -1.879199 -0.393500 -4.028000 11.155300 1.364485 -0.061477 1.613796 1.049383 -0.097280 -4.034401 7.256402 -7.126749 25.256221 4.792600 -3.864400 16.720200 -79.674610 5.583316 12.401680 12.211073 -17.645196 -2.151083 -1.567000 -1.946438 12.096798 -7.125000 0.000000 0.000000 77.418284 1.173339 11.819523 -21.377293 30.534252 -6.210969 0.481187 0.152586 -9.951047 7.125000 0.000000 0.000000 
